<svg xmlns="http://www.w3.org/2000/svg" viewBox="0 0 640 360">
  <defs>
    <linearGradient id="bgViper" x1="0" x2="1" y1="0" y2="1">
      <stop offset="0%" stop-color="#05070b" />
      <stop offset="100%" stop-color="#162017" />
    </linearGradient>
    <linearGradient id="neonViper" x1="0" x2="1" y1="0" y2="0">
      <stop offset="0%" stop-color="#7dff6b" />
      <stop offset="100%" stop-color="#00e5ff" />
    </linearGradient>
  </defs>
  <rect width="640" height="360" fill="url(#bgViper)" />
  <g opacity="0.3" stroke="#214226" stroke-width="1">
    <path d="M0 295H640" />
    <path d="M0 255H640" />
    <path d="M0 215H640" />
    <path d="M0 175H640" />
    <path d="M0 135H640" />
    <path d="M80 95V335" />
    <path d="M160 95V335" />
    <path d="M240 95V335" />
    <path d="M320 95V335" />
    <path d="M400 95V335" />
    <path d="M480 95V335" />
    <path d="M560 95V335" />
  </g>
  <g fill="#0d1b12" stroke="url(#neonViper)" stroke-width="3">
    <path d="M105 236L170 190H325L405 210H520L545 236L520 258H125Z" />
  </g>
  <g fill="#0b0f1f" stroke="#7dff6b" stroke-width="2">
    <circle cx="215" cy="254" r="22" />
    <circle cx="445" cy="254" r="22" />
  </g>
  <g fill="#7dff6b">
    <circle cx="215" cy="254" r="8" />
    <circle cx="445" cy="254" r="8" />
  </g>
  <path d="M190 206L250 178H335L365 192" fill="none" stroke="#00e5ff" stroke-width="3" opacity="0.8" />
  <text x="32" y="56" fill="#7dff6b" font-family="'Orbitron', sans-serif" font-size="18" letter-spacing="2">CYBER VIPER</text>
</svg>