<svg xmlns="http://www.w3.org/2000/svg" viewBox="0 0 640 360">
  <defs>
    <linearGradient id="bgGhost" x1="0" x2="1" y1="0" y2="1">
      <stop offset="0%" stop-color="#04070f" />
      <stop offset="100%" stop-color="#0c1f2e" />
    </linearGradient>
    <linearGradient id="neonGhost" x1="0" x2="1" y1="0" y2="0">
      <stop offset="0%" stop-color="#8ff7ff" />
      <stop offset="100%" stop-color="#4c6bff" />
    </linearGradient>
  </defs>
  <rect width="640" height="360" fill="url(#bgGhost)" />
  <g opacity="0.32" stroke="#233a4f" stroke-width="1">
    <path d="M0 295H640" />
    <path d="M0 255H640" />
    <path d="M0 215H640" />
    <path d="M0 175H640" />
    <path d="M0 135H640" />
    <path d="M75 95V335" />
    <path d="M155 95V335" />
    <path d="M235 95V335" />
    <path d="M315 95V335" />
    <path d="M395 95V335" />
    <path d="M475 95V335" />
    <path d="M555 95V335" />
  </g>
  <g fill="#0e1a27" stroke="url(#neonGhost)" stroke-width="3">
    <path d="M110 237L175 190H330L410 212H520L545 237L520 258H130Z" />
  </g>
  <g fill="#0b0f1f" stroke="#8ff7ff" stroke-width="2">
    <circle cx="215" cy="254" r="22" />
    <circle cx="445" cy="254" r="22" />
  </g>
  <g fill="#8ff7ff">
    <circle cx="215" cy="254" r="8" />
    <circle cx="445" cy="254" r="8" />
  </g>
  <path d="M200 206L255 176H332L360 192" fill="none" stroke="#4c6bff" stroke-width="3" opacity="0.85" />
  <text x="32" y="56" fill="#8ff7ff" font-family="'Orbitron', sans-serif" font-size="18" letter-spacing="2">GHOST RUNNER</text>
</svg>