<svg xmlns="http://www.w3.org/2000/svg" viewBox="0 0 640 360">
  <defs>
    <linearGradient id="bgIon" x1="0" x2="1" y1="0" y2="1">
      <stop offset="0%" stop-color="#05060d" />
      <stop offset="100%" stop-color="#1a1024" />
    </linearGradient>
    <linearGradient id="neonIon" x1="0" x2="1" y1="0" y2="0">
      <stop offset="0%" stop-color="#ffd66b" />
      <stop offset="100%" stop-color="#ff7b00" />
    </linearGradient>
  </defs>
  <rect width="640" height="360" fill="url(#bgIon)" />
  <g opacity="0.3" stroke="#3f2a1b" stroke-width="1">
    <path d="M0 300H640" />
    <path d="M0 260H640" />
    <path d="M0 220H640" />
    <path d="M0 180H640" />
    <path d="M0 140H640" />
    <path d="M90 100V330" />
    <path d="M190 100V330" />
    <path d="M290 100V330" />
    <path d="M390 100V330" />
    <path d="M490 100V330" />
    <path d="M590 100V330" />
  </g>
  <g fill="#1a141a" stroke="url(#neonIon)" stroke-width="3">
    <path d="M100 235L175 190H340L410 208H520L545 235L522 256H125Z" />
  </g>
  <g fill="#0b0f1f" stroke="#ffd66b" stroke-width="2">
    <circle cx="215" cy="252" r="22" />
    <circle cx="445" cy="252" r="22" />
  </g>
  <g fill="#ffd66b">
    <circle cx="215" cy="252" r="8" />
    <circle cx="445" cy="252" r="8" />
  </g>
  <path d="M200 204L255 176H330L360 192" fill="none" stroke="#ff7b00" stroke-width="3" opacity="0.85" />
  <text x="32" y="56" fill="#ffd66b" font-family="'Orbitron', sans-serif" font-size="18" letter-spacing="2">ION STRIKER</text>
</svg>