<svg xmlns="http://www.w3.org/2000/svg" viewBox="0 0 640 360">
  <defs>
    <linearGradient id="bgPhantom" x1="0" x2="1" y1="0" y2="1">
      <stop offset="0%" stop-color="#04060d" />
      <stop offset="100%" stop-color="#0a1b24" />
    </linearGradient>
    <linearGradient id="neonPhantom" x1="0" x2="1" y1="0" y2="0">
      <stop offset="0%" stop-color="#00ffd1" />
      <stop offset="100%" stop-color="#00e5ff" />
    </linearGradient>
  </defs>
  <rect width="640" height="360" fill="url(#bgPhantom)" />
  <g opacity="0.32" stroke="#1d3b3f" stroke-width="1">
    <path d="M0 300H640" />
    <path d="M0 260H640" />
    <path d="M0 220H640" />
    <path d="M0 180H640" />
    <path d="M0 140H640" />
    <path d="M100 100V330" />
    <path d="M200 100V330" />
    <path d="M300 100V330" />
    <path d="M400 100V330" />
    <path d="M500 100V330" />
    <path d="M600 100V330" />
  </g>
  <g fill="#0e1c20" stroke="url(#neonPhantom)" stroke-width="3">
    <path d="M115 236L185 190H350L420 210H520L545 236L520 258H135Z" />
  </g>
  <g fill="#0b0f1f" stroke="#00ffd1" stroke-width="2">
    <circle cx="225" cy="254" r="22" />
    <circle cx="450" cy="254" r="22" />
  </g>
  <g fill="#00ffd1">
    <circle cx="225" cy="254" r="8" />
    <circle cx="450" cy="254" r="8" />
  </g>
  <path d="M200 206L260 178H350L380 194" fill="none" stroke="#00e5ff" stroke-width="3" opacity="0.8" />
  <text x="32" y="56" fill="#00ffd1" font-family="'Orbitron', sans-serif" font-size="18" letter-spacing="2">NEON PHANTOM</text>
</svg>