<svg xmlns="http://www.w3.org/2000/svg" viewBox="0 0 640 360">
  <defs>
    <linearGradient id="bgComet" x1="0" x2="1" y1="0" y2="1">
      <stop offset="0%" stop-color="#040510" />
      <stop offset="100%" stop-color="#0e162e" />
    </linearGradient>
    <linearGradient id="neonComet" x1="0" x2="1" y1="0" y2="0">
      <stop offset="0%" stop-color="#6b8cff" />
      <stop offset="100%" stop-color="#00e5ff" />
    </linearGradient>
  </defs>
  <rect width="640" height="360" fill="url(#bgComet)" />
  <g opacity="0.32" stroke="#1f2d48" stroke-width="1">
    <path d="M0 300H640" />
    <path d="M0 260H640" />
    <path d="M0 220H640" />
    <path d="M0 180H640" />
    <path d="M0 140H640" />
    <path d="M80 100V330" />
    <path d="M160 100V330" />
    <path d="M240 100V330" />
    <path d="M320 100V330" />
    <path d="M400 100V330" />
    <path d="M480 100V330" />
    <path d="M560 100V330" />
  </g>
  <g fill="#10172d" stroke="url(#neonComet)" stroke-width="3">
    <path d="M110 236L175 188H335L415 210H520L545 236L520 258H130Z" />
  </g>
  <g fill="#0b0f1f" stroke="#6b8cff" stroke-width="2">
    <circle cx="215" cy="254" r="22" />
    <circle cx="445" cy="254" r="22" />
  </g>
  <g fill="#6b8cff">
    <circle cx="215" cy="254" r="8" />
    <circle cx="445" cy="254" r="8" />
  </g>
  <path d="M200 206L255 178H332L360 192" fill="none" stroke="#00e5ff" stroke-width="3" opacity="0.85" />
  <text x="32" y="56" fill="#6b8cff" font-family="'Orbitron', sans-serif" font-size="18" letter-spacing="2">NIGHT COMET</text>
</svg>